<svg id="Layer_1" data-name="Layer 1" xmlns="http://www.w3.org/2000/svg" xmlns:xlink="http://www.w3.org/1999/xlink" width="146.42" height="60" viewBox="0 0 146.42 60"><defs><style>.cls-1{fill:#fff;}.cls-2{mask:url(#mask);}.cls-3{fill:#4cb749;}.cls-4{mask:url(#mask-2);}.cls-5{fill:#59c5ec;}.cls-6{mask:url(#mask-3);}.cls-7{fill:#d7df23;}.cls-8{mask:url(#mask-4);}.cls-9{fill:#e71d25;}</style><mask id="mask" x="18.74" y="2.67" width="56.09" height="49.56" maskUnits="userSpaceOnUse"><g id="g14-j"><polygon id="g14-i" class="cls-1" points="18.74 2.67 74.83 2.67 74.83 52.22 18.74 52.22 18.74 2.67"/></g></mask><mask id="mask-2" x="22.86" y="19.46" width="46.09" height="40.54" maskUnits="userSpaceOnUse"><g id="g14-gP"><polygon id="g14-gO" class="cls-1" points="22.86 19.46 68.96 19.46 68.96 60 22.86 60 22.86 19.46"/></g></mask><mask id="mask-3" x="8.83" y="0" width="47.41" height="41.09" maskUnits="userSpaceOnUse"><g id="g14-dr"><polygon id="g14-dq" class="cls-1" points="8.84 0 56.25 0 56.25 41.09 8.84 41.09 8.84 0"/></g></mask><mask id="mask-4" x="0" y="4.48" width="64.08" height="55.14" maskUnits="userSpaceOnUse"><g id="g14-jv"><polygon id="g14-ju" class="cls-1" points="0 4.48 64.08 4.48 64.08 59.62 0 59.62 0 4.48"/></g></mask></defs><title>kidy</title><g class="cls-2"><path class="cls-3" d="M60.73,3c7.34,1.43,10.37,6.12,12.7,13.49,2.09,6.64,2.52,16.43-3.66,22.78-1,1.05-3.27,3.44-15.55,9.9-19.44,10.22-30.56-7.2-33.68-17.69C16.25,17,19.6,13,30.72,8,39,4.3,54.81,1.8,60.73,3"/></g><g class="cls-4"><path class="cls-5" d="M64.9,28.9c4.6,4.18,4.71,8.9,3.16,15.28-1.4,5.74-5.37,13.07-12.52,15.06-1.19.33-3.83,1.11-15.39.58C21.87,59,21.54,41.49,23.89,32.5c3.22-12.35,7.35-13.85,17.44-12.74,7.5.82,19.86,5.77,23.57,9.14"/></g><polygon points="85.49 24.95 89.48 30.57 96.43 30.57 89.33 21.35 96.18 12.48 89.36 12.48 85.49 17.89 85.49 12.48 80.01 12.48 80.01 30.57 85.49 30.57 85.49 24.95"/><polygon points="102.9 12.48 97.42 12.48 97.42 30.57 102.9 30.57 102.9 12.48"/><path d="M111.59,25.4h-1.1V17.65h1.1c2.8,0,4.11,1.23,4.11,3.88s-1.31,3.87-4.11,3.87m7.12,2.73a8.84,8.84,0,0,0,2.52-6.6,8.85,8.85,0,0,0-2.52-6.61c-1.67-1.62-4.06-2.44-7.12-2.44H105V30.57h6.58c3.06,0,5.45-.82,7.12-2.44"/><polygon points="125.62 30.57 131.1 30.57 131.1 23.02 137.66 12.48 131.28 12.48 128.35 17.66 125.44 12.48 118.96 12.48 125.62 23.15 125.62 30.57"/><polygon points="78.98 37.59 83.55 37.59 83.55 50.51 89.03 50.51 89.03 37.59 93.62 37.59 93.62 32.42 78.98 32.42 78.98 37.59"/><path d="M106.16,44.51a4.27,4.27,0,0,1-5.85,0,4.67,4.67,0,0,1,0-6.09,4.27,4.27,0,0,1,5.85,0,4.67,4.67,0,0,1,0,6.09m-2.92-12.43a9.51,9.51,0,0,0-6.88,2.65,9.08,9.08,0,0,0-2.71,6.74,9.07,9.07,0,0,0,2.71,6.73,10.24,10.24,0,0,0,13.75,0,9.07,9.07,0,0,0,2.71-6.73,9.08,9.08,0,0,0-2.71-6.74,9.5,9.5,0,0,0-6.87-2.65"/><path d="M124,43.13c0,1.78-.71,2.54-2.39,2.54s-2.33-.76-2.33-2.54V32.42h-5.48V43.13a7.65,7.65,0,0,0,2.06,5.63,7.79,7.79,0,0,0,5.78,2.09,7.15,7.15,0,0,0,7.74-7.72V32.42H124Z"/><path d="M139.72,38.82c0,.76-.25,1.26-1.49,1.26h-2V37.59h2C139.47,37.59,139.72,38.08,139.72,38.82Zm2.68,5.46a5.32,5.32,0,0,0,2-2,6.83,6.83,0,0,0,.87-3.5,6.21,6.21,0,0,0-1.8-4.65,7.3,7.3,0,0,0-5.27-1.75h-7.46V50.51h5.48V45.26h.72l3,5.25h6.53Z"/><g class="cls-6"><path class="cls-7" d="M49.23,3.65c5.68,3.05,7,7.74,7,14.49,0,6.09-2.12,14.38-8.83,18.12-1.1.62-3.57,2.05-15.35,4.34C13.45,44.22,8.73,26.84,8.84,17.28,9,4.15,12.76,1.64,23.2.28c7.75-1,21.45.9,26,3.37"/></g><g class="cls-8"><path class="cls-9" d="M51.79,6.33c8.11,3,10.68,9,11.94,17.82,1.13,8-.24,19.27-8.49,25.36-1.36,1-4.39,3.32-19.64,8.4-24.12,8-33.52-14-35.09-26.57C-1.65,14.05,2.93,10.09,16.57,6.47,26.7,3.78,45.26,3.9,51.79,6.33"/></g><path class="cls-1" d="M36.16,32.91c-1.08.34-2.17.64-3.27.91s-2.21.49-3.32.66-2.25.31-3.38.38a32.14,32.14,0,0,1-3.4,0,24.09,24.09,0,0,1-3.39-.38c-.46-.08-.91-.18-1.37-.29l1.73,16.24L30.88,49.3,29.67,37.94,39,48.45,53.06,47,38.75,32c-.85.32-1.72.62-2.59.9"/><path class="cls-1" d="M56.28,19.22a.76.76,0,0,0-.72-.19,3.18,3.18,0,0,0-.59.15l-.19.05a.49.49,0,0,0-.24.05,2.14,2.14,0,0,0-.29.16l-3.48,2.42-3.4.17-.07,0-.54.32a.16.16,0,0,0-.08.13.14.14,0,0,0,.09.13l1.86.82-1.78,1.3-.41.25-.28.08-2.61-.54a.48.48,0,0,0-.26.05l-.36.18-.13.07a.18.18,0,0,0-.1.11s0,.12.14.36a.1.1,0,0,0,0,0l1.87,1h0a64.83,64.83,0,0,1-7.82,3.8l-.25-.26,12-19.36L34.84,12,28.16,23.69,27,12.78,15.88,13.94,17.9,33q-.69-.12-1.38-.3a17,17,0,0,1-3.09-1.11,14.38,14.38,0,0,1-4-2.84c-.19-.2-.37-.41-.55-.62s-.36-.43-.52-.65l-.05,0c.15.24.31.47.47.7s.34.44.52.66a12.14,12.14,0,0,0,1.16,1.22,14.46,14.46,0,0,0,2.75,2,16.92,16.92,0,0,0,3.13,1.33,21,21,0,0,0,3.32.75,25.66,25.66,0,0,0,3.39.26,32,32,0,0,0,3.4-.15c1.13-.11,2.26-.29,3.37-.5S32,33.26,33.1,33s2.17-.65,3.23-1,2.12-.8,3.16-1.23L41,30l1.53-.73c1-.49,2-1,3-1.55s1.83-1,2.73-1.58h0l.13-.08c.3-.19,1-.69,1.36-1V27.2a.13.13,0,0,0,.07.13l.09,0h0l0,0,.68-.44a.13.13,0,0,0,.06-.07l1.43-3.43c.27-.21,1.57-1.25,2-1.57s1.06-.82,1.38-1.08h0l.15-.12a2.21,2.21,0,0,0,.68-1,.44.44,0,0,0-.1-.36"/></svg>