<svg id="Layer_1" data-name="Layer 1" xmlns="http://www.w3.org/2000/svg" width="236.88" height="60" viewBox="0 0 236.88 60"><defs><style>.cls-1{fill:#00428a;}.cls-2{fill:#009fe8;}.cls-3{fill:#009844;}.cls-4{fill:#fff;}.cls-5{fill:#fccf00;}</style></defs><title>tez</title><path class="cls-1" d="M187.39,4.77h49.49v5h-.24l-24,15.61h24.25v5.84H187.39V25.66l25-15.88h-25v-5Zm-46.68,0h42.18v5H157.57v5.57h24.69v5H157.57v5.84h25.56v5H136.8V4.77Zm-55.65,0h48.11v5.37H119.3V31.23H98.53V10.14H85.06V4.77Z"/><path class="cls-2" d="M5,9.9C9.59,3,39-1.95,40.47.74c1,2.29-1.9,4.15-3.28,7.58-.95,2-1.18,4,2,3.8,1.77,0,6.79-2.06,10.3-3.44,2.73-1,7.47-3.63,10.39-4,5.41-.79,9.92,2.21,8.26,9.36-.75,3.2,2.29,5.17,2.37,9.44.15,1,.11,5.37-2.22,4.46-4.1-1.7-11.17-7.82-13.78-9.63C47.94,12.71,42,22.9,39.17,25.94c-2.53,2.92-3.4,6.44-13.39-3.08-4.78-4.39-6.72-.28-8.49,1.1-2.37,2.06-8.38,7.9-10,8.65C3.7,35.77,4.81,30,5.16,28.43c.48-2.45,2-6.52,2.29-8.65C8.36,16.1,3.54,12.31,5,9.9Z"/><path class="cls-3" d="M.42,42.33c4.74-6.12,15.68-13,18.92-16.08,4.19-4,5.41-1.81,8.65.95,2.53,1.94,3.67,4.19,7.46,6.2,4,2.21,4.31-1.18,6.13-3.91,2-4.26,3.24-8,5.21-9.36,1.15-.67,2.84-2.76,7.82,1.46C60.06,25.78,69,31.67,71.16,35c.47.83,6.36,5.06-1.58,6.52C63.42,43,47.3,48,38.54,48.1c-6,.15-7.59,1.38-6.84-5.46C32.1,38.7,27,39,20.05,40.71A133.18,133.18,0,0,0,6.39,44.9c-5.34,1.26-7.35-.44-6-2.57Z"/><path class="cls-1" d="M4.49,52C2.67,47.66,4,48.17,6.7,47.19c4.78-1.07,13.94-4.66,16.83-4.31,1.46.24,3.91-1.18,3.31,2.92-.31,2.37-1,4.51,3.16,3.91,14.54-.07,31.05-3.16,33.18-3.87S70,43.4,69.54,48.37c-.55,6.36-4,10.78-6.4,11.26-13.47,2.88-23.26-7-38.19-2.14C18.59,58.72,8.12,61.29,4.49,52Z"/><path class="cls-4" d="M22.42,5.76c3.87,0,7.62,3,7.62,5.68s-3.95,6.2-7.82,6.2S16,13.93,16,11.17s2.53-5.41,6.4-5.41Z"/><path class="cls-5" d="M22.93,6.59a5.26,5.26,0,0,1,5.46,5,5.26,5.26,0,0,1-5.46,5,5.29,5.29,0,0,1-5.49-5,5.32,5.32,0,0,1,5.49-5Z"/><path class="cls-1" d="M85.06,36V54.61H237V36Zm40.76,15.36-8.26,0c-2,0-6.43-.83-6.43-3.79V42.61l-10.75,0,0-2.29h10.87V38.14h6.79v2.14h15.24l0,2.13-15.48,0-.08,4.9c0,.59.79,1.89,2.85,1.93H125c1.26,0,2.13-.55,2.61-2.21l0-.12h6.59C134.35,50.5,130,51.33,125.82,51.33Zm41-4.46a3.35,3.35,0,0,1-2.18,3c-1.69.87-4.26,1.31-7.66,1.31H148c-3.32,0-5.77-.36-7.39-1.11a3.5,3.5,0,0,1-2.45-3.24V44.5h0a3.35,3.35,0,0,1,2.21-3A18.41,18.41,0,0,1,148,40.24h9c3.48,0,6,.43,7.66,1.26a3.33,3.33,0,0,1,2.14,3Zm33.65,4.31-7,0V49.64c-1.62,1.22-2.41,1.58-3.48,1.58h-8.81c-3.35,0-5.84-.36-7.42-1.11a3.5,3.5,0,0,1-2.37-3.2V40.28h7v6c0,1.86,1.46,2.25,4.78,2.49h5.45c1.14,0,4.82-.32,4.82-2.49v-6h7Zm15.44-9c-1.38,0-4,1.11-4,2.61v6.4h-7V40.28l6.91-.08v1.18a6.71,6.71,0,0,1,4-1.42l5.92,0,0,2.29Z"/><path class="cls-1" d="M158.6,42.76a7.05,7.05,0,0,0-3.32-.63h-5.65a7.44,7.44,0,0,0-3.35.59,2,2,0,0,0-1.11,1.86v2c0,1.66,1.5,2.49,4.46,2.49h5.65a6.76,6.76,0,0,0,3.28-.63,2,2,0,0,0,1.19-1.86v-2A2,2,0,0,0,158.6,42.76Z"/></svg>