<svg xmlns="http://www.w3.org/2000/svg" xmlns:xlink="http://www.w3.org/1999/xlink" width="139" height="34" viewBox="0 0 139 34">
  <defs>
    <linearGradient id="logo-a" x1="50%" x2="50%" y1="99.352%" y2="4.215%">
      <stop offset="0%" stop-color="#FE1352"/>
      <stop offset="100%" stop-color="#FE13C2"/>
    </linearGradient>
    <path id="logo-b" d="M12.7341846,33.4603469 C5.40999498,31.5676702 0,24.9156211 0,17 C0,7.61115925 7.61115925,0 17,0 C26.3888407,0 34,7.61115925 34,17 C34,19.9459421 33.2506663,22.7168679 31.9322028,25.1325735 C30.6544108,18.9633033 27.1111336,14.2524455 21.3023711,11 C25.7381609,18.1338317 26.1589288,24.3320006 22.5646748,29.5945065 L22.0825559,28.1147221 C21.3602148,23.6600801 18.9554453,20.2885061 14.8682474,18 C18.7362015,24.2206135 18.0248473,29.3740625 12.7341846,33.4603469 Z"/>
  </defs>
  <g fill="none" fill-rule="evenodd">
    <path fill="#202840" d="M52,11.6611328 L52,9 L60.2373047,9 L60.2373047,11.6611328 L57.4589844,11.6611328 L57.4589844,23.7998047 L54.7392578,23.7998047 L54.7001953,11.6611328 L52,11.6611328 Z M60.4765625,23.7998047 L60.4765625,12.7011719 L62.8984375,12.7011719 L62.8984375,13.7216797 C63.4518257,12.7874302 64.3242128,12.3203125 65.515625,12.3203125 L65.515625,14.8984375 C64.9557264,14.963542 64.5073259,15.0791007 64.1704102,15.2451172 C63.8334944,15.4111336 63.5771493,15.6894512 63.4013672,16.0800781 C63.2255851,16.4707051 63.1376953,17.024085 63.1376953,17.7402344 L63.1376953,23.7998047 L60.4765625,23.7998047 Z M66.3603516,18.140625 C66.396159,16.8873635 66.6834283,15.82699 67.222168,14.9594727 C67.7609076,14.0919553 68.4461221,13.4482443 69.277832,13.0283203 C70.1095419,12.6083963 70.9762325,12.3984375 71.8779297,12.3984375 C72.4150417,12.3984375 72.9326147,12.4708652 73.4306641,12.6157227 C73.9287134,12.7605802 74.3706035,12.9729804 74.7563477,13.2529297 C75.1420918,13.532879 75.4423817,13.8681621 75.6572266,14.2587891 L75.6572266,12.7011719 L78.0791016,12.7011719 L78.0791016,23.7998047 L75.6572266,23.7998047 L75.6572266,22.28125 C75.2731101,22.8281277 74.7172888,23.2781558 73.9897461,23.6313477 C73.2622034,23.9845395 72.5452509,24.1611328 71.8388672,24.1611328 C70.777664,24.1611328 69.829594,23.8990912 68.9946289,23.375 C68.1596638,22.8509088 67.5118838,22.1282598 67.0512695,21.2070312 C66.5906552,20.2858027 66.3603516,19.2636775 66.3603516,18.140625 Z M72.3808594,21.578125 C72.9960968,21.5651041 73.5470353,21.4129246 74.0336914,21.121582 C74.5203475,20.8302394 74.8995755,20.4322942 75.1713867,19.9277344 C75.443198,19.4231746 75.5791016,18.8665395 75.5791016,18.2578125 C75.5791016,17.5904915 75.4285497,17.0086288 75.1274414,16.512207 C74.8263331,16.0157853 74.4259465,15.6365573 73.9262695,15.3745117 C73.4265926,15.1124661 72.883792,14.9814453 72.2978516,14.9814453 C71.7184216,14.9814453 71.1772486,15.1165351 70.6743164,15.3867188 C70.1713842,15.6569024 69.7701838,16.0426407 69.4707031,16.5439453 C69.1712225,17.0452499 69.0214844,17.6311815 69.0214844,18.3017578 C69.0214844,18.985355 69.1858708,19.5761694 69.5146484,20.0742188 C69.8434261,20.5722681 70.2682266,20.9474271 70.7890625,21.199707 C71.3098984,21.4519869 71.8404921,21.578125 72.3808594,21.578125 Z M78.9775391,12.7011719 L81.9365234,12.7011719 L84.5195312,19.9814453 L87.0976562,12.7011719 L90.0371094,12.7011719 L85.5351562,23.7998047 L83.4794922,23.7998047 L78.9775391,12.7011719 Z M90.8183594,18.140625 C90.8183594,17.5481741 90.9388009,16.91667 91.1796875,16.2460938 C91.4205741,15.5755175 91.7818986,14.9440134 92.2636719,14.3515625 C92.7454451,13.7591116 93.3533492,13.2789732 94.0874023,12.9111328 C94.8214555,12.5432924 95.6588495,12.359375 96.5996094,12.359375 C97.550135,12.359375 98.4680945,12.6018856 99.3535156,13.0869141 C100.238937,13.5719425 100.957517,14.2587846 101.509277,15.1474609 C102.061038,16.0361373 102.336914,17.0468693 102.336914,18.1796875 C102.336914,18.5410174 102.304362,18.9544248 102.239258,19.4199219 L93.640625,19.4199219 C93.7447922,19.8463563 93.9449855,20.2215153 94.2412109,20.5454102 C94.5374364,20.869305 94.8955057,21.118326 95.3154297,21.2924805 C95.7353537,21.466635 96.17643,21.5618489 96.6386719,21.578125 C97.6152393,21.5358071 98.4078746,21.2102895 99.0166016,20.6015625 L101.956055,20.6015625 C101.695637,21.2786492 101.316409,21.8816705 100.818359,22.4106445 C100.32031,22.9396185 99.7270542,23.356281 99.0385742,23.6606445 C98.3500942,23.965008 97.5891969,24.1318358 96.7558594,24.1611328 C95.9453084,24.1611328 95.1779008,24.0113947 94.4536133,23.7119141 C93.7293258,23.4124334 93.0904976,22.9973985 92.5371094,22.4667969 C91.9837212,21.9361953 91.5548518,21.3380567 91.2504883,20.6723633 C90.9461248,20.0066698 90.7890625,19.3287795 90.7792969,18.6386719 C90.8053387,18.5052077 90.8183594,18.3391937 90.8183594,18.140625 Z M96.6386719,14.9375 C95.8346314,14.9537761 95.1738307,15.1767557 94.65625,15.6064453 C94.1386693,16.036135 93.7854827,16.5276665 93.5966797,17.0810547 L99.7001953,17.0810547 C99.5830072,16.7425113 99.3885105,16.408042 99.1166992,16.0776367 C98.844888,15.7472314 98.4982117,15.4746104 98.0766602,15.2597656 C97.6551086,15.0449208 97.1757839,14.9375 96.6386719,14.9375 Z M104.119141,9 L106.780273,9 L106.780273,23.7998047 L104.119141,23.7998047 L104.119141,9 Z M119.099609,14.1611328 C119.402345,14.5061866 119.66927,14.9082008 119.900391,15.3671875 C120.131512,15.8261742 120.305663,16.3095678 120.422852,16.8173828 C120.54004,17.3251979 120.598633,17.8330053 120.598633,18.3408203 C120.598633,19.3694713 120.35775,20.3281206 119.875977,21.2167969 C119.394203,22.1054732 118.731775,22.8118463 117.888672,23.3359375 C117.045569,23.8600287 116.109706,24.1220703 115.081055,24.1220703 C114.316077,24.1220703 113.600752,23.9650081 112.935059,23.6508789 C112.269365,23.3367497 111.750978,22.8671906 111.379883,22.2421875 L111.379883,23.7998047 L108.918945,23.7998047 L108.918945,9 L111.580078,9 L111.580078,13.8779297 C112.527348,12.839513 113.681308,12.3203125 115.041992,12.3203125 C115.823246,12.3203125 116.573564,12.4871403 117.292969,12.8208008 C118.012373,13.1544613 118.614581,13.6012342 119.099609,14.1611328 Z M112.239258,20.4404297 C112.877282,21.1533239 113.710607,21.5325519 114.739258,21.578125 C115.341474,21.5553384 115.88753,21.3933934 116.377441,21.0922852 C116.867353,20.7911769 117.25065,20.3859075 117.527344,19.8764648 C117.804038,19.3670222 117.942383,18.8014354 117.942383,18.1796875 C117.942383,17.6100232 117.795086,17.0712916 117.500488,16.5634766 C117.20589,16.0556615 116.809573,15.6512059 116.311523,15.3500977 C115.813474,15.0489894 115.27637,14.8984375 114.700195,14.8984375 C114.091468,14.8984375 113.538902,15.0546859 113.04248,15.3671875 C112.546059,15.6796891 112.150555,16.0979792 111.855957,16.6220703 C111.561359,17.1461615 111.402669,17.7060517 111.379883,18.3017578 C111.422201,19.1350953 111.708656,19.8479788 112.239258,20.4404297 Z M122.117188,23.7998047 L122.117188,12.7011719 L124.539062,12.7011719 L124.539062,13.7216797 C125.092451,12.7874302 125.964838,12.3203125 127.15625,12.3203125 L127.15625,14.8984375 C126.596351,14.963542 126.147951,15.0791007 125.811035,15.2451172 C125.474119,15.4111336 125.217774,15.6894512 125.041992,16.0800781 C124.86621,16.4707051 124.77832,17.024085 124.77832,17.7402344 L124.77832,23.7998047 L122.117188,23.7998047 Z M129.158203,14.2978516 C129.626955,13.8518858 130.109535,13.4864923 130.605957,13.2016602 C131.102379,12.916828 131.60449,12.7052416 132.112305,12.5668945 C132.62012,12.4285475 133.121417,12.359375 133.616211,12.359375 C134.638351,12.359375 135.600256,12.627927 136.501953,13.1650391 C137.40365,13.7021511 138.125486,14.4231726 138.66748,15.328125 C139.209475,16.2330774 139.480469,17.1966095 139.480469,18.21875 C139.480469,19.2799532 139.214358,20.2670853 138.682129,21.1801758 C138.1499,22.0932663 137.43132,22.8183567 136.526367,23.3554688 C135.621415,23.8925808 134.638352,24.1611328 133.577148,24.1611328 C132.496414,24.1611328 131.506027,23.895836 130.605957,23.3652344 C129.705887,22.8346328 128.99219,22.1136113 128.464844,21.2021484 C127.937497,20.2906855 127.662435,19.2962293 127.639648,18.21875 C127.681966,16.7766855 128.188146,15.4697324 129.158203,14.2978516 Z M131.160156,15.9775391 C130.623044,16.6709019 130.336589,17.4456337 130.300781,18.3017578 C130.323568,18.8681669 130.476561,19.3995743 130.759766,19.8959961 C131.04297,20.3924178 131.425453,20.7911769 131.907227,21.0922852 C132.389,21.3933934 132.919593,21.5553384 133.499023,21.578125 C134.130537,21.5553384 134.689613,21.3999038 135.17627,21.1118164 C135.662926,20.823729 136.038085,20.4355493 136.301758,19.9472656 C136.565431,19.4589819 136.697266,18.9104848 136.697266,18.3017578 C136.697266,17.6995413 136.558107,17.1429062 136.279785,16.6318359 C136.001463,16.1207657 135.615725,15.7179377 135.122559,15.4233398 C134.629392,15.128742 134.075198,14.9814453 133.459961,14.9814453 C132.551753,14.9814453 131.785159,15.3134732 131.160156,15.9775391 Z"/>
    <use fill="url(#logo-a)" fill-rule="nonzero" xlink:href="#logo-b"/>
  </g>
</svg>
